<?xml version="1.0" encoding="UTF-8"?><svg xmlns="http://www.w3.org/2000/svg" viewBox="0 0 2878.56 689.04"><defs><style>.cls-1{fill:#ef6224;}.cls-2{fill:#fed600;}.cls-3{fill:#221f1f;}</style></defs><g id="Layer_1"><g><path class="cls-3" d="M151.79,539.58H63.39V267.51h88.4v272.07Z"/><path class="cls-3" d="M182.15,539.58V267.51h87.96v43.22c20.99-33.88,57.59-53.04,101.79-53.04,71.89,0,110.73,50.58,110.73,121.79v160.1h-87.96v-153.71c0-35.36-18.31-55.98-51.8-55.98-29.02,0-54.02,15.22-72.77,48.62v161.08h-87.96Z"/><path class="cls-3" d="M824.59,523.37c-22.32,16.7-57.15,26.52-87.07,26.52-56.25,0-98.66-33.88-98.66-99.69v-114.43h-43.76v-68.26h43.76v-63.35h87.96v63.35h95.1v68.26h-95.1v98.22c0,24.55,16.52,38.8,40.18,38.8,14.74,0,28.57-5.4,42.86-12.77l14.74,63.35Z"/><path class="cls-3" d="M1462.98,379.48v160.1h-87.5v-154.7c0-33.88-16.08-55-48.67-55-28.12,0-50,16.7-66.08,48.62v110.5l.45,50.58h-87.96v-154.7c0-33.88-16.07-55-48.66-55-28.12,0-49.55,16.21-65.63,47.64v162.06h-87.96V267.51h87.96v44.2c20.1-34.87,54.03-54.02,96.44-54.02,51.8,0,83.94,27.5,97.78,69.24,16.52-40.27,53.13-69.24,104.47-69.24,71.44,0,105.37,52.05,105.37,121.79Z"/><path class="cls-3" d="M1664.34,482.12c39.29,0,62.96-10.31,87.51-30.94l44.64,51.57c-35.27,34.38-80.81,48.13-137.07,48.13-104.92,0-166.09-55.99-166.09-147.33s60.28-147.33,159.4-147.33c89.29,0,152.69,49.11,152.69,145.36,0,10.8-.44,17.19-2.23,22.59h-225.92c7.15,41.25,37.06,57.95,87.07,57.95Zm-84.83-110.01l144.66-.98c-9.37-31.92-33.04-47.15-70.54-47.15s-64.29,15.22-74.12,48.13Z"/><ellipse class="cls-1" cx="107.59" cy="187.7" rx="49.38" ry="49.53"/><path class="cls-3" d="M2147.32,523.37c-22.32,16.7-57.15,26.52-87.07,26.52-56.25,0-98.66-33.88-98.66-99.69v-114.43h-43.76v-68.26h43.76v-63.35h87.96v63.35h95.1v68.26h-95.1v98.22c0,24.55,16.52,38.8,40.18,38.8,14.74,0,28.57-5.4,42.86-12.77l14.74,63.35Z"/><path class="cls-3" d="M2346.2,482.12c39.28,0,62.95-10.31,87.5-30.94l44.65,51.57c-35.27,34.38-80.81,48.13-137.07,48.13-104.92,0-166.08-55.99-166.08-147.33s60.27-147.33,159.39-147.33c89.3,0,152.7,49.11,152.7,145.36,0,10.8-.44,17.19-2.23,22.59h-225.92c7.14,41.25,37.06,57.95,87.07,57.95Zm-84.83-110.01l144.66-.98c-9.37-31.92-33.04-47.15-70.54-47.15s-64.3,15.22-74.12,48.13Z"/><path class="cls-3" d="M2677.93,550.88c-98.67,0-160.29-56.97-160.29-147.33s61.61-147.33,160.29-147.33c74.56,0,120.55,35.85,140.64,78.08l-75.45,33.4c-12.95-27.5-36.61-37.32-64.29-37.32-45.1,0-76.79,25.05-76.79,73.17s31.7,73.17,76.79,73.17c27.23,0,52.23-10.31,66.08-38.8l75.45,33.88c-20.53,43.22-67.42,79.07-142.43,79.07Z"/><path class="cls-3" d="M940.76,539.58h-88.4V267.51h88.4v272.07Z"/><ellipse class="cls-1" cx="896.56" cy="187.7" rx="49.38" ry="49.53"/></g></g><g id="Layer_2"><path class="cls-3" d="M151.79,539.58H63.39V267.51h88.4v272.07Z"/><path class="cls-3" d="M182.15,539.58V267.51h87.96v43.22c20.99-33.88,57.59-53.04,101.79-53.04,71.89,0,110.73,50.58,110.73,121.79v160.1h-87.96v-153.71c0-35.36-18.31-55.98-51.8-55.98-29.02,0-54.02,15.22-72.77,48.62v161.08h-87.96Z"/><path class="cls-3" d="M824.59,523.37c-22.32,16.7-57.15,26.52-87.07,26.52-56.25,0-98.66-33.88-98.66-99.69v-114.43h-43.76v-68.26h43.76v-63.35h87.96v63.35h95.1v68.26h-95.1v98.22c0,24.55,16.52,38.8,40.18,38.8,14.74,0,28.57-5.4,42.86-12.77l14.74,63.35Z"/><path class="cls-3" d="M1462.98,379.48v160.1h-87.5v-154.7c0-33.88-16.08-55-48.67-55-28.12,0-50,16.7-66.08,48.62v110.5l.45,50.58h-87.96v-154.7c0-33.88-16.07-55-48.66-55-28.12,0-49.55,16.21-65.63,47.64v162.06h-87.96V267.51h87.96v44.2c20.1-34.87,54.03-54.02,96.44-54.02,51.8,0,83.94,27.5,97.78,69.24,16.52-40.27,53.13-69.24,104.47-69.24,71.44,0,105.37,52.05,105.37,121.79Z"/><path class="cls-3" d="M1664.34,482.12c39.29,0,62.96-10.31,87.51-30.94l44.64,51.57c-35.27,34.38-80.81,48.13-137.07,48.13-104.92,0-166.09-55.99-166.09-147.33s60.28-147.33,159.4-147.33c89.29,0,152.69,49.11,152.69,145.36,0,10.8-.44,17.19-2.23,22.59h-225.92c7.15,41.25,37.06,57.95,87.07,57.95Zm-84.83-110.01l144.66-.98c-9.37-31.92-33.04-47.15-70.54-47.15s-64.29,15.22-74.12,48.13Z"/><ellipse class="cls-2" cx="107.59" cy="187.7" rx="49.38" ry="49.53"/><path class="cls-3" d="M2147.32,523.37c-22.32,16.7-57.15,26.52-87.07,26.52-56.25,0-98.66-33.88-98.66-99.69v-114.43h-43.76v-68.26h43.76v-63.35h87.96v63.35h95.1v68.26h-95.1v98.22c0,24.55,16.52,38.8,40.18,38.8,14.74,0,28.57-5.4,42.86-12.77l14.74,63.35Z"/><path class="cls-3" d="M2346.2,482.12c39.28,0,62.95-10.31,87.5-30.94l44.65,51.57c-35.27,34.38-80.81,48.13-137.07,48.13-104.92,0-166.08-55.99-166.08-147.33s60.27-147.33,159.39-147.33c89.3,0,152.7,49.11,152.7,145.36,0,10.8-.44,17.19-2.23,22.59h-225.92c7.14,41.25,37.06,57.95,87.07,57.95Zm-84.83-110.01l144.66-.98c-9.37-31.92-33.04-47.15-70.54-47.15s-64.3,15.22-74.12,48.13Z"/><path class="cls-3" d="M2677.93,550.88c-98.67,0-160.29-56.97-160.29-147.33s61.61-147.33,160.29-147.33c74.56,0,120.55,35.85,140.64,78.08l-75.45,33.4c-12.95-27.5-36.61-37.32-64.29-37.32-45.1,0-76.79,25.05-76.79,73.17s31.7,73.17,76.79,73.17c27.23,0,52.23-10.31,66.08-38.8l75.45,33.88c-20.53,43.22-67.42,79.07-142.43,79.07Z"/><path class="cls-3" d="M940.76,539.58h-88.4V267.51h88.4v272.07Z"/><ellipse class="cls-1" cx="896.56" cy="187.7" rx="49.38" ry="49.53"/></g></svg>